<?xml version="1.0" encoding="utf-8"?>
<!-- Generator: Adobe Illustrator 19.2.1, SVG Export Plug-In . SVG Version: 6.00 Build 0)  -->
<svg version="1.1" id="layer" xmlns="http://www.w3.org/2000/svg" xmlns:xlink="http://www.w3.org/1999/xlink" x="0px" y="0px"
	 viewBox="0 0 652 652" style="enable-background:new 0 0 652 652;" xml:space="preserve">
<style type="text/css">
	.st0{fill:#EF1923;}
	.st1{fill:#FFFFFF;}
</style>
<rect x="144.9" y="144.3" transform="matrix(0.7071 -0.7071 0.7071 0.7071 -132.8274 321.4826)" width="353.6" height="353.6"/>
<polyline class="st0" points="446.8,196.2 321.6,71.1 196.5,196.2 196.7,196 238.3,237.5 405,237.5 446.6,196 "/>
<path class="st1" d="M257.1,343.8v-64.4h24.7v58.5c0,3.5,2,5.3,5.9,5.3h31.2c3.9,0,5.8-1.8,5.8-5.3v-58.5h24.7v64.4
	c0,5.9-2,10.6-5.8,14.2c-3.9,3.5-9.1,5.3-15.6,5.3h-49.5c-6.5,0-11.7-1.8-15.6-5.3C259,354.4,257.1,349.7,257.1,343.8 M387.9,329
	h34.5c3.9,0,5.9,1.8,5.9,5.3v4.7c0,3.5-2,5.3-5.9,5.3h-34.5V329z M387.9,297.1h31.8c3.9,0,5.9,1.8,5.9,5.3v3.5c0,3.5-2,5.3-5.9,5.3
	h-31.8V297.1z M431.5,362.1c6.5,0,11.7-1.8,15.6-5.3c3.9-3.5,5.9-8.3,5.9-14.2v-5.9c0-2.8-0.5-5.4-1.6-7.6c-1.1-2.3-2.3-3.9-3.6-5.1
	c-1.3-1.1-2.8-2.1-4.6-2.8c-1.7-0.7-2.9-1.2-3.6-1.3c-0.7-0.1-1.2-0.2-1.6-0.3v-1.2l1.3-0.3c0.8-0.2,1.9-0.7,3.1-1.4
	c1.2-0.7,2.4-1.6,3.6-2.8c1.2-1.1,2.2-2.7,3-4.8c0.9-2.1,1.3-4.5,1.3-7.2v-3c0-5.9-1.9-10.6-5.8-14.2c-3.9-3.6-9.1-5.3-15.6-5.3
	h-65.7v82.7H431.5z M464,362.1h24.7v-82.7H464V362.1z M214.2,317.7c3.9,0,5.9-1.8,5.9-5.3v-7.6c0-3.5-2-5.3-5.9-5.3h-34.5v18.2
	H214.2z M246.7,350.8v11.2h-22.5l-24.3-24.3h-20.1v24.3H155v-82.7h68.3c6.5,0,11.7,1.8,15.6,5.3c3.9,3.6,5.8,8.3,5.8,14.2v19.4
	c0,3-0.6,5.7-1.7,8c-1.1,2.3-2.5,4-4.1,5.2c-1.6,1.2-3.2,2.1-4.7,2.9c-1.1,0.5-2.1,0.9-3,1.1l15,15L246.7,350.8z"/>
</svg>
