<?xml version="1.0" encoding="utf-8"?>
<!-- Generator: Adobe Illustrator 21.0.2, SVG Export Plug-In . SVG Version: 6.00 Build 0)  -->
<svg version="1.1" id="Capa_1" xmlns="http://www.w3.org/2000/svg" xmlns:xlink="http://www.w3.org/1999/xlink" x="0px" y="0px"
	 width="505.3px" height="120.5px" viewBox="0 0 505.3 120.5" style="enable-background:new 0 0 505.3 120.5;" xml:space="preserve"
	>
<g>
	<path style="fill:#276092;" d="M53,90.1c3-3.8,4.6-8.2,4.9-13.1c0.1-2.1,0.1-4.5,0.1-7.2c0-2.7,0-5.7-0.1-9.1v-11
		c0-8.4,2.7-15.4,8.1-21.2c5.4-5.8,12.3-8.7,20.6-8.7l24.5,0C105.9,14.5,99.8,10,93,6.7c-3.2-1.6-6.7-2.9-10.2-4
		c-6-1.8-12.4-2.7-19-2.7c-6.6,0-13,0.9-19,2.7c-3.5,1-6.9,2.4-10.2,4C20,13.8,8.7,26.1,3.3,41C1.2,47.1,0,53.5,0,60.2
		C0,66.8,1.1,73.1,3.1,79c2.1,6.1,5.2,11.8,9.2,16.9h28.9C46.1,95.8,50,93.9,53,90.1"/>
	<path style="fill:#276092;" d="M124.3,41c-1.5-4.2-3.5-8.1-5.8-11.8H86.6c-4.9,0-8.9,1.9-11.9,5.6c-3,3.8-4.6,8.1-4.9,13.2
		c0,1.1,0,3.1,0,5.9v10.7c0,4.7,0,8.2,0,10.7c0,8.4-2.7,15.4-8.1,21.2c-5.4,5.8-12.2,8.7-20.5,8.7h-20c4.3,3.7,9.2,6.8,14.5,9.2
		c2.2,1,4.4,1.9,6.8,2.7c6.7,2.2,13.8,3.4,21.3,3.4c7.5,0,14.6-1.2,21.3-3.4c2.3-0.8,4.6-1.7,6.8-2.7c15.4-7.1,27.3-19.9,32.6-35.4
		c2-5.9,3.2-12.2,3.2-18.7C127.6,53.5,126.4,47.1,124.3,41"/>
	<path style="fill:#276092;" d="M189.3,60.7c12.7,2.8,19,7.7,19,14.9c0,9.3-9.3,14-27.8,14h-7.2c-8.9,0-15.4-2-19.5-6l5.5-2.5
		c3.4,2.7,8.1,4.1,14,4.1h11.7c11.4,0,17.1-3.1,17.1-9.2c0-5.3-5.4-9.1-16.2-11.4l-13.8-2.9c-11.8-2.5-17.7-7.2-17.7-13.9
		c0-8.5,7.5-12.8,22.5-12.8h10.9c9,0,15.5,1.9,19.4,5.7l-5.5,2.5c-3.3-2.5-8.1-3.8-14.6-3.8h-12.6c-9.3,0-14,2.9-14,8.6
		c0,4.3,4.8,7.5,14.4,9.6L189.3,60.7"/>
	<path style="fill:#276092;" d="M274.3,40.1c8.3,5,12.5,12.1,12.5,21.3c0,1-0.1,1.8-0.4,2.5h-64.8c0.6,7.8,4.2,13.7,10.9,17.6
		c5.4,3.2,11.8,4.8,19.3,4.8c4.5,0,9.1-0.6,13.9-1.8c5.3-1.3,9.4-3.1,12.1-5.3l4.6,3.3c-6.9,5.4-17.1,8.1-30.6,8.1
		c-9.2,0-17.2-2-24-6.1c-8.5-5.1-12.7-12.5-12.7-22.2c0-9.5,4.1-16.9,12.4-22.1c6.7-4.2,14.6-6.3,23.6-6.3
		C259.9,34,267.6,36.1,274.3,40.1 M280.4,59.4c-0.9-7.2-4.6-12.7-10.9-16.5c-5.2-3.1-11.3-4.6-18.4-4.6c-7,0-13.2,1.5-18.4,4.6
		c-6.4,3.8-10.1,9.3-11,16.5H280.4z"/>
	<path style="fill:#276092;" d="M298,16.3c3,0,4.6,1.1,4.6,3.3c0,2.3-1.5,3.4-4.6,3.4c-2.9,0-4.3-1.1-4.3-3.4
		C293.7,17.5,295.1,16.3,298,16.3 M301.2,89.7H295V35h6.2V89.7z"/>
	<path style="fill:#276092;" d="M380.9,8.9v80.8h-6.2V79.5c-3.8,4.1-9.2,7.3-16.2,9.3c-4.2,1.2-8.5,1.9-13.1,1.9
		c-9.1,0-17-2.1-23.6-6.2c-8.2-5.1-12.3-12.5-12.3-22.1c0-9.8,4-17.3,12-22.3c6.4-4,14.3-6,23.6-6c12.6,0,22.5,4,29.7,12.1V8.9
		H380.9 M358.5,83.9c7.1-2.7,12.5-6.5,16.2-11.4v-7.4c0-7.6-2.4-13.9-7.1-18.7c-5.3-5.4-12.7-8.1-22.3-8.1c-7.7,0-14.3,1.7-19.7,5.2
		c-6.6,4.3-9.9,10.6-9.9,18.8c0,8.3,3.3,14.6,9.8,18.9c5.3,3.4,11.8,5.1,19.7,5.1C350.1,86.3,354.4,85.5,358.5,83.9z"/>
	<path style="fill:#276092;" d="M447.4,40.3c8.2,5.2,12.3,12.5,12.3,22.1c0,9.6-4.1,16.9-12.3,22.1c-6.6,4.1-14.5,6.2-23.5,6.2
		c-9,0-16.8-2.1-23.5-6.3c-8.3-5.2-12.4-12.5-12.4-22c0-9.5,4.1-16.9,12.4-22.1c6.7-4.2,14.5-6.3,23.5-6.3
		C432.9,34,440.8,36.1,447.4,40.3 M443.3,80.9c6.6-4.3,9.9-10.5,9.9-18.6c0-8.1-3.3-14.4-9.8-18.7c-5.4-3.5-11.9-5.3-19.6-5.3
		c-7.7,0-14.3,1.8-19.6,5.3c-6.6,4.3-9.9,10.5-9.9,18.7c0,8.2,3.3,14.4,9.9,18.7c5.4,3.5,11.9,5.3,19.6,5.3
		C431.4,86.3,437.9,84.5,443.3,80.9z"/>
	<path style="fill:#276092;" d="M505.3,40.1h-0.4c0.5,0-2.3-0.2-8.3-0.7c-7.1,0-12.8,2.2-17.2,6.7c-4.6,4.7-6.8,11.1-6.8,19.1v24.4
		h-6V35h6v10.7c5.8-7.3,14-10.9,24.9-10.9c0.8,0.1,3.5,0.4,7.9,0.8V40.1"/>
</g>
</svg>
