<svg version="1.1" xmlns="http://www.w3.org/2000/svg" x="0" y="0" viewBox="0 0 1000 125" xml:space="preserve">
    <path d="M429.1 32.9c0 11.4-6.7 16.9-18 16.9s-17.9-5.5-17.9-16.9V6.7h9.3v26.2c0 4.6 1.2 9.1 8.7 9.1 6.6 0 8.7-2.9 8.7-9.1V6.7h9.3v26.2zM436.2 18.4h8v4.3h.2c2.1-3.4 5.8-5.1 9.3-5.1 8.9 0 11.1 5 11.1 12.6V49h-8.4V31.6c0-5-1.5-7.5-5.4-7.5-4.5 0-6.5 2.5-6.5 8.7v16h-8.4V18.4zM480.3 13.6H472V6.7h8.4v6.9zm-8.3 4.8h8.4v30.5H472V18.4zM504.1 48.9h-9.3l-10.4-30.5h8.8l6.4 20.8h.1l6.4-20.8h8.3l-10.3 30.5zM523.6 35.6c.2 5.3 2.8 7.7 7.5 7.7 3.4 0 6.1-2.1 6.6-4h7.4c-2.4 7.2-7.4 10.3-14.3 10.3-9.6 0-15.6-6.6-15.6-16 0-9.1 6.3-16.1 15.6-16.1 10.4 0 15.4 8.7 14.8 18.1h-22zm13.7-5.3c-.8-4.3-2.6-6.5-6.7-6.5-5.3 0-6.8 4.1-7 6.5h13.7zM550.6 18.4h8V24h.1c1.5-3.8 5.7-6.5 9.7-6.5.6 0 1.3.1 1.8.3v7.8c-.8-.2-2-.3-3-.3-6.1 0-8.3 4.4-8.3 9.8v13.8h-8.4V18.4zM580.3 38.9c.1 3.7 3.1 5.1 6.4 5.1 2.4 0 5.5-1 5.5-3.9 0-2.5-3.5-3.4-9.5-4.7-4.8-1.1-9.7-2.8-9.7-8.1 0-7.8 6.7-9.8 13.3-9.8 6.7 0 12.8 2.2 13.4 9.7h-8c-.2-3.2-2.7-4.1-5.7-4.1-1.9 0-4.7.4-4.7 2.8 0 3 4.7 3.4 9.5 4.5 4.9 1.1 9.7 2.9 9.7 8.6 0 8-7 10.6-13.9 10.6-7.1 0-14-2.7-14.3-10.7h8zM614.4 13.6H606V6.7h8.4v6.9zm-8.4 4.8h8.4v30.5H606V18.4zM632.8 18.4h6.1V24h-6.1v15.1c0 2.8.7 3.5 3.5 3.5.9 0 1.7-.1 2.6-.2v6.5c-1.4.2-3.2.3-4.9.3-5.1 0-9.6-1.2-9.6-7.3V24h-5.1v-5.6h5.1V9.2h8.4v9.2zM644.1 27.7c.5-7.8 7.5-10.2 14.3-10.2 6.1 0 13.4 1.4 13.4 8.7v15.9c0 2.8.3 5.5 1.1 6.8h-8.5c-.3-.9-.5-1.9-.6-2.9-2.7 2.8-6.5 3.8-10.3 3.8-5.8 0-10.4-2.9-10.4-9.1 0-6.9 5.2-8.5 10.4-9.3 5.1-.8 9.9-.6 9.9-4 0-3.6-2.5-4.1-5.4-4.1-3.2 0-5.2 1.3-5.6 4.6h-8.3zm19.3 6.2c-1.4 1.2-4.4 1.3-7 1.8-2.6.5-5 1.4-5 4.5s2.4 3.9 5.1 3.9c6.5 0 6.8-5.2 6.8-7v-3.2zM688.6 18.4h6.1V24h-6.1v15.1c0 2.8.7 3.5 3.5 3.5.9 0 1.7-.1 2.6-.2v6.5c-1.4.2-3.2.3-4.9.3-5.1 0-9.6-1.2-9.6-7.3V24h-5.1v-5.6h5.1V9.2h8.4v9.2zM727.2 6.7h9.5l15.8 42.1h-9.6l-3.2-9.4H724l-3.3 9.4h-9.4l15.9-42.1zm-.9 25.9h10.9L732 17.1h-.1l-5.6 15.5zM783.6 48.9h-8v-4.2h-.2c-2.1 3.4-5.8 5.1-9.3 5.1-8.9 0-11.1-5-11.1-12.6V18.4h8.4v17.2c0 5 1.5 7.5 5.4 7.5 4.6 0 6.5-2.5 6.5-8.7v-16h8.4v30.5zM802 18.4h6.1V24H802v15.1c0 2.8.7 3.5 3.5 3.5.9 0 1.7-.1 2.6-.2v6.5c-1.4.2-3.3.3-4.9.3-5.1 0-9.6-1.2-9.6-7.3V24h-5.1v-5.6h5.1V9.2h8.4v9.2zM827.9 17.5c9.6 0 15.8 6.4 15.8 16.1 0 9.7-6.2 16-15.8 16-9.6 0-15.8-6.4-15.8-16 0-9.7 6.2-16.1 15.8-16.1zM817.4 6.2h9.3l5.7 8.4h-5.8l-9.2-8.4zm10.5 37.2c5.7 0 7.4-4.9 7.4-9.7 0-4.9-1.7-9.8-7.4-9.8s-7.4 4.9-7.4 9.8c0 4.8 1.7 9.7 7.4 9.7zM848.5 18.4h8v4.3h.2c2.1-3.4 5.8-5.1 9.3-5.1 8.9 0 11.1 5 11.1 12.6V49h-8.4V31.6c0-5-1.5-7.5-5.4-7.5-4.5 0-6.5 2.5-6.5 8.7v16h-8.4V18.4zM897.7 17.5c9.6 0 15.8 6.4 15.8 16.1 0 9.7-6.2 16-15.8 16-9.6 0-15.8-6.4-15.8-16 0-9.7 6.2-16.1 15.8-16.1zm0 25.9c5.7 0 7.4-4.9 7.4-9.7 0-4.9-1.7-9.8-7.4-9.8s-7.4 4.9-7.4 9.8c0 4.8 1.7 9.7 7.4 9.7zM918.6 18.4h7.9v4.1h.1c2.2-3.1 5.4-5 9.3-5 3.8 0 7.3 1.4 8.9 5.1 1.8-2.7 5-5.1 9.2-5.1 6.5 0 11.1 3 11.1 10.9v20.4h-8.4V31.6c0-4.1-.4-7.4-5.1-7.4-4.7 0-5.6 3.9-5.6 7.7v17h-8.4V31.7c0-3.5.2-7.6-5.1-7.6-1.6 0-5.7 1.1-5.7 7v17.7h-8.4V18.4zM970.8 27.7c.5-7.8 7.5-10.2 14.3-10.2 6.1 0 13.4 1.4 13.4 8.7v15.9c0 2.8.3 5.5 1.1 6.8h-8.5c-.3-.9-.5-1.9-.6-2.9-2.7 2.8-6.5 3.8-10.3 3.8-5.8 0-10.4-2.9-10.4-9.1 0-6.9 5.2-8.5 10.4-9.3 5.1-.8 9.9-.6 9.9-4 0-3.6-2.5-4.1-5.4-4.1-3.2 0-5.2 1.3-5.5 4.6h-8.4zm19.4 6.2c-1.4 1.2-4.4 1.3-7 1.8-2.6.5-5 1.4-5 4.5s2.4 3.9 5.1 3.9c6.6 0 6.8-5.2 6.8-7v-3.2zM414.2 115.2h-.1c-1.9 3.3-5.4 4.7-9.3 4.7-9.2 0-13.7-7.9-13.7-16.3 0-8.2 4.5-15.8 13.5-15.8 3.6 0 7.1 1.5 9.1 4.5h-.1.1V77h8.4v42.1h-8v-3.9zm-7.3-21.1c-5.5 0-7.4 4.7-7.4 9.7 0 4.8 2.2 9.8 7.4 9.8 5.5 0 7.2-4.8 7.2-9.9 0-4.9-1.8-9.6-7.2-9.6zM436 105.9c.2 5.3 2.8 7.7 7.5 7.7 3.4 0 6.1-2.1 6.6-4h7.4c-2.4 7.2-7.4 10.3-14.3 10.3-9.6 0-15.6-6.6-15.6-16 0-9.1 6.3-16.1 15.6-16.1 10.4 0 15.4 8.7 14.8 18.1h-22zm13.6-5.3c-.8-4.3-2.6-6.5-6.7-6.5-5.3 0-6.8 4.1-7 6.5h13.7zM476.4 77h19.8c8 0 13.5 2.6 13.5 10.4 0 4.1-2.1 7-5.7 8.8 5.1 1.5 7.7 5.4 7.7 10.7 0 8.6-7.3 12.2-14.9 12.2h-20.4V77zm9.2 17h9.4c3.2 0 5.7-1.5 5.7-5 0-4-3.1-4.8-6.4-4.8h-8.7V94zm0 17.9h9.9c3.7 0 6.8-1.2 6.8-5.5s-2.7-6-6.7-6h-10.1v11.5zM517 98c.5-7.8 7.5-10.2 14.3-10.2 6.1 0 13.4 1.4 13.4 8.7v15.9c0 2.8.3 5.5 1.1 6.8h-8.5c-.3-.9-.5-1.9-.6-2.9-2.7 2.8-6.6 3.8-10.3 3.8-5.8 0-10.4-2.9-10.4-9.1 0-6.9 5.2-8.6 10.4-9.3 5.1-.8 9.9-.6 9.9-4 0-3.6-2.5-4.1-5.4-4.1-3.2 0-5.2 1.3-5.5 4.6H517zm19.3 6.2c-1.4 1.2-4.4 1.3-7 1.8-2.6.5-5 1.4-5 4.5s2.4 3.9 5.1 3.9c6.6 0 6.8-5.2 6.8-7v-3.2zM551.8 88.6h8v5.7h.1c1.5-3.8 5.7-6.5 9.7-6.5.6 0 1.3.1 1.8.3v7.8c-.8-.2-2-.3-3-.3-6.1 0-8.3 4.4-8.3 9.8v13.7h-8.4V88.6zM595.3 99.3c-.5-3.4-2.7-5.2-6.2-5.2-5.4 0-7.1 5.4-7.1 9.9 0 4.4 1.7 9.6 7 9.6 3.9 0 6.1-2.5 6.7-6.2h8.1c-1.1 8.1-6.7 12.5-14.7 12.5-9.2 0-15.4-6.5-15.4-15.6 0-9.5 5.7-16.5 15.6-16.5 7.2 0 13.8 3.8 14.3 11.6h-8.3zM615.6 105.9c.2 5.3 2.8 7.7 7.5 7.7 3.4 0 6.1-2.1 6.6-4h7.4c-2.4 7.2-7.4 10.3-14.3 10.3-9.6 0-15.6-6.6-15.6-16 0-9.1 6.3-16.1 15.6-16.1 10.4 0 15.4 8.7 14.8 18.1h-22zm13.6-5.3c-.8-4.3-2.6-6.5-6.7-6.5-5.3 0-6.8 4.1-7 6.5h13.7zM642.8 77h8.4v42.1h-8.4V77zM672.6 87.8c9.6 0 15.8 6.4 15.8 16.1 0 9.7-6.2 16-15.8 16-9.6 0-15.8-6.4-15.8-16 0-9.8 6.2-16.1 15.8-16.1zm0 25.8c5.7 0 7.4-4.9 7.4-9.7 0-4.9-1.7-9.8-7.4-9.8s-7.4 4.9-7.4 9.8c0 4.8 1.7 9.7 7.4 9.7zM693.8 88.6h8v4.3h.2c2.1-3.4 5.8-5.1 9.3-5.1 8.9 0 11.2 5 11.2 12.6v18.8H714V102c0-5-1.5-7.5-5.4-7.5-4.6 0-6.5 2.5-6.5 8.7v16h-8.4V88.6zM728.7 98c.5-7.8 7.5-10.2 14.3-10.2 6.1 0 13.4 1.4 13.4 8.7v15.9c0 2.8.3 5.5 1.1 6.8H749c-.3-.9-.5-1.9-.6-2.9-2.6 2.8-6.5 3.8-10.3 3.8-5.8 0-10.4-2.9-10.4-9.1 0-6.9 5.2-8.6 10.4-9.3 5.1-.8 9.9-.6 9.9-4 0-3.6-2.5-4.1-5.4-4.1-3.2 0-5.3 1.3-5.5 4.6h-8.4zm19.4 6.2c-1.4 1.2-4.4 1.3-7 1.8-2.6.5-5 1.4-5 4.5s2.4 3.9 5.1 3.9c6.6 0 6.8-5.2 6.8-7v-3.2z"></path>
    <g><path d="M250.4 3.8v115.4h59.1c14 0 23.2-2.4 30.5-8.5 8-6.2 12-15.1 12-26 0-13.9-6.2-23.2-18.7-27.9l-1.9-.7c10-5.2 15.1-13 15.1-23.4 0-10.7-5.5-19.9-14.9-24.6-5.9-2.9-13.7-4.3-25.7-4.3h-55.5zm30.1 22.8h20.8c10.9 0 15.8 3.5 15.8 11.4 0 7.1-5.4 11.1-15.1 10.9h-21.5V26.6zm0 42.3h23c12.3 0 17.8 4.2 17.8 13.4 0 9-5.4 13.2-17.1 13.2h-23.7V68.9zM101.9 3.8H71.8v70.7c0 16.1-5.9 22.9-19.6 22.9-14.6 0-20.8-6.9-20.8-23V3.8H1.3v68.4c0 14 1.4 21.7 5.4 28.9 7.6 14 22.5 20.8 45 20.8 17 0 28.7-3.5 37.4-11.4 5.2-5 8.8-11.3 10.9-18.5 1.4-5.4 1.9-10.4 1.9-19.6V3.8zM168.9 73.9l22.2-5.2 4.5 4.2-2.5 7.9-24.2-6.9zm19.2-60.8s3.5 32.6 2.7 35.8c0 0-.7 7.9 11.1 36.3 11.9 28.4 4.2 8.9 14.1 31.4l4.4 6.4 4.5-35.6c.7-12.9.5-33.9.5-33.9.7-.5 3.4-35.3 3-38-.5-2.7-.3-12.1-.3-12.1-36.3-1.5-44.5 1.5-44.5 1.5C156.9 3.2 127 3.2 127 3.2c-1.7 6.2-2.7 15.3-2.5 18.3.2 3 .7 7.4.2 15.1-.5 7.7 1.2 29.9 1.2 29.9l-1.7-.5c1.2 21-.5 53.1-.5 53.1h24.2c1.2-1.5 25.2-59.8 25.2-59.8 8.9-17.8 15-46.2 15-46.2z"></path></g>
</svg>